<mxfile host="app.diagrams.net" agent="Mozilla/5.0 (Windows NT 10.0; Win64; x64; rv:132.0) Gecko/20100101 Firefox/132.0 Viewer/99.9.8843.88" version="24.8.3">
  <diagram name="1 oldal" id="DqaPMAoTxOr4dpQfmg80">
    <mxGraphModel grid="0" page="0" gridSize="12" guides="1" tooltips="1" connect="1" arrows="0" fold="1" pageScale="1" pageWidth="1169" pageHeight="827" background="none" math="0" shadow="1">
      <root>
        <mxCell id="0" />
        <mxCell id="1" parent="0" />
        <mxCell id="MRaJnN5qhACwFd_UVzpz-8" value="" style="shape=mxgraph.cisco.computers_and_peripherals.pc;sketch=0;html=1;pointerEvents=1;dashed=0;fillColor=#036897;strokeColor=#ffffff;strokeWidth=2;verticalLabelPosition=bottom;verticalAlign=top;align=center;outlineConnect=0;" vertex="1" parent="1">
          <mxGeometry x="1170" y="165.25" width="58" height="50" as="geometry" />
        </mxCell>
        <mxCell id="MRaJnN5qhACwFd_UVzpz-11" value="" style="shape=mxgraph.cisco.routers.router;sketch=0;html=1;pointerEvents=1;dashed=0;fillColor=#036897;strokeColor=#ffffff;strokeWidth=2;verticalLabelPosition=bottom;verticalAlign=top;align=center;outlineConnect=0;" vertex="1" parent="1">
          <mxGeometry x="890" y="110" width="50" height="39" as="geometry" />
        </mxCell>
        <mxCell id="MRaJnN5qhACwFd_UVzpz-12" value="" style="shape=mxgraph.cisco.routers.router;sketch=0;html=1;pointerEvents=1;dashed=0;fillColor=#036897;strokeColor=#ffffff;strokeWidth=2;verticalLabelPosition=bottom;verticalAlign=top;align=center;outlineConnect=0;" vertex="1" parent="1">
          <mxGeometry x="750" y="210" width="50" height="39" as="geometry" />
        </mxCell>
        <mxCell id="MRaJnN5qhACwFd_UVzpz-13" value="" style="shape=mxgraph.cisco.routers.router;sketch=0;html=1;pointerEvents=1;dashed=0;fillColor=#036897;strokeColor=#ffffff;strokeWidth=2;verticalLabelPosition=bottom;verticalAlign=top;align=center;outlineConnect=0;" vertex="1" parent="1">
          <mxGeometry x="890" y="300" width="50" height="40" as="geometry" />
        </mxCell>
        <mxCell id="MRaJnN5qhACwFd_UVzpz-18" value="" style="shape=mxgraph.cisco.servers.fileserver;sketch=0;html=1;pointerEvents=1;dashed=0;fillColor=#036897;strokeColor=#ffffff;strokeWidth=2;verticalLabelPosition=bottom;verticalAlign=top;align=center;outlineConnect=0;" vertex="1" parent="1">
          <mxGeometry x="94" y="165.25" width="40" height="60" as="geometry" />
        </mxCell>
        <mxCell id="MRaJnN5qhACwFd_UVzpz-20" value="" style="shape=mxgraph.cisco.routers.router;sketch=0;html=1;pointerEvents=1;dashed=0;fillColor=#036897;strokeColor=#ffffff;strokeWidth=2;verticalLabelPosition=bottom;verticalAlign=top;align=center;outlineConnect=0;" vertex="1" parent="1">
          <mxGeometry x="404" y="380" width="60" height="40" as="geometry" />
        </mxCell>
        <mxCell id="MRaJnN5qhACwFd_UVzpz-21" value="" style="shape=mxgraph.cisco.routers.router;sketch=0;html=1;pointerEvents=1;dashed=0;fillColor=#036897;strokeColor=#ffffff;strokeWidth=2;verticalLabelPosition=bottom;verticalAlign=top;align=center;outlineConnect=0;" vertex="1" parent="1">
          <mxGeometry x="274" y="469.5" width="60" height="40" as="geometry" />
        </mxCell>
        <mxCell id="MRaJnN5qhACwFd_UVzpz-22" value="" style="shape=mxgraph.cisco.routers.router;sketch=0;html=1;pointerEvents=1;dashed=0;fillColor=#036897;strokeColor=#ffffff;strokeWidth=2;verticalLabelPosition=bottom;verticalAlign=top;align=center;outlineConnect=0;" vertex="1" parent="1">
          <mxGeometry x="274" y="305.5" width="60" height="40" as="geometry" />
        </mxCell>
        <mxCell id="MRaJnN5qhACwFd_UVzpz-23" value="" style="shape=mxgraph.cisco.servers.fileserver;sketch=0;html=1;pointerEvents=1;dashed=0;fillColor=#036897;strokeColor=#ffffff;strokeWidth=2;verticalLabelPosition=bottom;verticalAlign=top;align=center;outlineConnect=0;" vertex="1" parent="1">
          <mxGeometry x="1118" y="87" width="43" height="62" as="geometry" />
        </mxCell>
        <mxCell id="MRaJnN5qhACwFd_UVzpz-24" value="" style="shape=mxgraph.cisco.servers.fileserver;sketch=0;html=1;pointerEvents=1;dashed=0;fillColor=#036897;strokeColor=#ffffff;strokeWidth=2;verticalLabelPosition=bottom;verticalAlign=top;align=center;outlineConnect=0;" vertex="1" parent="1">
          <mxGeometry x="-138" y="220.5" width="40" height="55.5" as="geometry" />
        </mxCell>
        <mxCell id="MRaJnN5qhACwFd_UVzpz-25" value="" style="shape=mxgraph.cisco.servers.fileserver;sketch=0;html=1;pointerEvents=1;dashed=0;fillColor=#036897;strokeColor=#ffffff;strokeWidth=2;verticalLabelPosition=bottom;verticalAlign=top;align=center;outlineConnect=0;" vertex="1" parent="1">
          <mxGeometry x="-193" y="330" width="40" height="56.5" as="geometry" />
        </mxCell>
        <mxCell id="MRaJnN5qhACwFd_UVzpz-26" value="" style="shape=mxgraph.cisco.servers.fileserver;sketch=0;html=1;pointerEvents=1;dashed=0;fillColor=#036897;strokeColor=#ffffff;strokeWidth=2;verticalLabelPosition=bottom;verticalAlign=top;align=center;outlineConnect=0;" vertex="1" parent="1">
          <mxGeometry x="-206" y="445.5" width="40" height="54.5" as="geometry" />
        </mxCell>
        <mxCell id="MRaJnN5qhACwFd_UVzpz-27" value="" style="shape=mxgraph.cisco.servers.fileserver;sketch=0;html=1;pointerEvents=1;dashed=0;fillColor=#036897;strokeColor=#ffffff;strokeWidth=2;verticalLabelPosition=bottom;verticalAlign=top;align=center;outlineConnect=0;" vertex="1" parent="1">
          <mxGeometry x="-203" y="545.5" width="40" height="54.5" as="geometry" />
        </mxCell>
        <mxCell id="MRaJnN5qhACwFd_UVzpz-28" value="" style="shape=mxgraph.cisco.computers_and_peripherals.pc;sketch=0;html=1;pointerEvents=1;dashed=0;fillColor=#036897;strokeColor=#ffffff;strokeWidth=2;verticalLabelPosition=bottom;verticalAlign=top;align=center;outlineConnect=0;" vertex="1" parent="1">
          <mxGeometry x="-173" y="285.5" width="37" height="34.5" as="geometry" />
        </mxCell>
        <mxCell id="MRaJnN5qhACwFd_UVzpz-29" value="" style="shape=mxgraph.cisco.computers_and_peripherals.pc;sketch=0;html=1;pointerEvents=1;dashed=0;fillColor=#036897;strokeColor=#ffffff;strokeWidth=2;verticalLabelPosition=bottom;verticalAlign=top;align=center;outlineConnect=0;" vertex="1" parent="1">
          <mxGeometry x="-86" y="209" width="40" height="33.5" as="geometry" />
        </mxCell>
        <mxCell id="MRaJnN5qhACwFd_UVzpz-30" value="" style="shape=mxgraph.cisco.computers_and_peripherals.pc;sketch=0;html=1;pointerEvents=1;dashed=0;fillColor=#036897;strokeColor=#ffffff;strokeWidth=2;verticalLabelPosition=bottom;verticalAlign=top;align=center;outlineConnect=0;" vertex="1" parent="1">
          <mxGeometry x="-136" y="430" width="38" height="34.5" as="geometry" />
        </mxCell>
        <mxCell id="MRaJnN5qhACwFd_UVzpz-31" value="" style="shape=mxgraph.cisco.computers_and_peripherals.pc;sketch=0;html=1;pointerEvents=1;dashed=0;fillColor=#036897;strokeColor=#ffffff;strokeWidth=2;verticalLabelPosition=bottom;verticalAlign=top;align=center;outlineConnect=0;" vertex="1" parent="1">
          <mxGeometry x="-136" y="565" width="40" height="40" as="geometry" />
        </mxCell>
        <mxCell id="MRaJnN5qhACwFd_UVzpz-32" value="" style="shape=mxgraph.cisco.computers_and_peripherals.pc;sketch=0;html=1;pointerEvents=1;dashed=0;fillColor=#036897;strokeColor=#ffffff;strokeWidth=2;verticalLabelPosition=bottom;verticalAlign=top;align=center;outlineConnect=0;" vertex="1" parent="1">
          <mxGeometry x="-240" y="512.5" width="37" height="36.5" as="geometry" />
        </mxCell>
        <mxCell id="MRaJnN5qhACwFd_UVzpz-34" value="" style="shape=mxgraph.cisco.computers_and_peripherals.pc;sketch=0;html=1;pointerEvents=1;dashed=0;fillColor=#036897;strokeColor=#ffffff;strokeWidth=2;verticalLabelPosition=bottom;verticalAlign=top;align=center;outlineConnect=0;" vertex="1" parent="1">
          <mxGeometry x="-134.5" y="380" width="37" height="36.5" as="geometry" />
        </mxCell>
        <mxCell id="MRaJnN5qhACwFd_UVzpz-36" value="" style="shape=mxgraph.cisco.computers_and_peripherals.pc;sketch=0;html=1;pointerEvents=1;dashed=0;fillColor=#036897;strokeColor=#ffffff;strokeWidth=2;verticalLabelPosition=bottom;verticalAlign=top;align=center;outlineConnect=0;" vertex="1" parent="1">
          <mxGeometry x="1168.5" y="235.5" width="58" height="50" as="geometry" />
        </mxCell>
        <mxCell id="MRaJnN5qhACwFd_UVzpz-37" value="" style="shape=mxgraph.cisco.computers_and_peripherals.pc;sketch=0;html=1;pointerEvents=1;dashed=0;fillColor=#036897;strokeColor=#ffffff;strokeWidth=2;verticalLabelPosition=bottom;verticalAlign=top;align=center;outlineConnect=0;" vertex="1" parent="1">
          <mxGeometry x="1112" y="310" width="58" height="50" as="geometry" />
        </mxCell>
        <mxCell id="MRaJnN5qhACwFd_UVzpz-39" value="" style="shape=mxgraph.cisco.storage.cloud;sketch=0;html=1;pointerEvents=1;dashed=0;fillColor=#036897;strokeColor=#ffffff;strokeWidth=2;verticalLabelPosition=bottom;verticalAlign=top;align=center;outlineConnect=0;" vertex="1" parent="1">
          <mxGeometry x="500" y="350" width="140" height="88" as="geometry" />
        </mxCell>
        <mxCell id="MRaJnN5qhACwFd_UVzpz-40" value="" style="shape=mxgraph.cisco.switches.layer_3_switch;sketch=0;html=1;pointerEvents=1;dashed=0;fillColor=#036897;strokeColor=#ffffff;strokeWidth=2;verticalLabelPosition=bottom;verticalAlign=top;align=center;outlineConnect=0;" vertex="1" parent="1">
          <mxGeometry x="94" y="290" width="40" height="40" as="geometry" />
        </mxCell>
        <mxCell id="MRaJnN5qhACwFd_UVzpz-41" value="" style="shape=mxgraph.cisco.switches.layer_3_switch;sketch=0;html=1;pointerEvents=1;dashed=0;fillColor=#036897;strokeColor=#ffffff;strokeWidth=2;verticalLabelPosition=bottom;verticalAlign=top;align=center;outlineConnect=0;" vertex="1" parent="1">
          <mxGeometry x="94" y="492" width="40" height="40" as="geometry" />
        </mxCell>
        <mxCell id="MRaJnN5qhACwFd_UVzpz-42" value="" style="shape=mxgraph.cisco.switches.workgroup_switch;sketch=0;html=1;pointerEvents=1;dashed=0;fillColor=#036897;strokeColor=#ffffff;strokeWidth=2;verticalLabelPosition=bottom;verticalAlign=top;align=center;outlineConnect=0;" vertex="1" parent="1">
          <mxGeometry x="-86" y="320" width="60" height="30" as="geometry" />
        </mxCell>
        <mxCell id="MRaJnN5qhACwFd_UVzpz-43" value="" style="shape=mxgraph.cisco.switches.workgroup_switch;sketch=0;html=1;pointerEvents=1;dashed=0;fillColor=#036897;strokeColor=#ffffff;strokeWidth=2;verticalLabelPosition=bottom;verticalAlign=top;align=center;outlineConnect=0;" vertex="1" parent="1">
          <mxGeometry x="-86" y="474.5" width="60" height="30" as="geometry" />
        </mxCell>
        <mxCell id="MRaJnN5qhACwFd_UVzpz-44" value="" style="shape=mxgraph.cisco.switches.workgroup_switch;sketch=0;html=1;pointerEvents=1;dashed=0;fillColor=#036897;strokeColor=#ffffff;strokeWidth=2;verticalLabelPosition=bottom;verticalAlign=top;align=center;outlineConnect=0;" vertex="1" parent="1">
          <mxGeometry x="1030" y="199" width="60" height="35.5" as="geometry" />
        </mxCell>
        <mxCell id="MRaJnN5qhACwFd_UVzpz-49" value="" style="shape=mxgraph.cisco.misc.asa_5500;html=1;pointerEvents=1;dashed=0;fillColor=#036897;strokeColor=#ffffff;strokeWidth=2;verticalLabelPosition=bottom;verticalAlign=top;align=center;outlineConnect=0;" vertex="1" parent="1">
          <mxGeometry x="284.25" y="170" width="39.5" height="50.5" as="geometry" />
        </mxCell>
        <mxCell id="MRaJnN5qhACwFd_UVzpz-50" value="" style="endArrow=none;dashed=1;html=1;rounded=0;entryX=0.713;entryY=0.976;entryDx=0;entryDy=0;entryPerimeter=0;exitX=0.713;exitY=-0.013;exitDx=0;exitDy=0;exitPerimeter=0;" edge="1" parent="1" source="MRaJnN5qhACwFd_UVzpz-41" target="MRaJnN5qhACwFd_UVzpz-40">
          <mxGeometry width="50" height="50" relative="1" as="geometry">
            <mxPoint x="114" y="470" as="sourcePoint" />
            <mxPoint x="114" y="290" as="targetPoint" />
            <Array as="points" />
          </mxGeometry>
        </mxCell>
        <mxCell id="MRaJnN5qhACwFd_UVzpz-51" value="" style="endArrow=none;dashed=1;html=1;rounded=0;entryX=0.211;entryY=0.976;entryDx=0;entryDy=0;entryPerimeter=0;exitX=0.213;exitY=-0.028;exitDx=0;exitDy=0;exitPerimeter=0;" edge="1" parent="1" source="MRaJnN5qhACwFd_UVzpz-41" target="MRaJnN5qhACwFd_UVzpz-40">
          <mxGeometry width="50" height="50" relative="1" as="geometry">
            <mxPoint x="94" y="470" as="sourcePoint" />
            <mxPoint x="94" y="280" as="targetPoint" />
            <Array as="points" />
          </mxGeometry>
        </mxCell>
        <mxCell id="MRaJnN5qhACwFd_UVzpz-53" value="" style="endArrow=none;dashed=1;html=1;rounded=0;exitX=0.976;exitY=0.19;exitDx=0;exitDy=0;exitPerimeter=0;entryX=0.053;entryY=0.324;entryDx=0;entryDy=0;entryPerimeter=0;" edge="1" parent="1" source="MRaJnN5qhACwFd_UVzpz-42" target="MRaJnN5qhACwFd_UVzpz-40">
          <mxGeometry width="50" height="50" relative="1" as="geometry">
            <mxPoint x="-26" y="310" as="sourcePoint" />
            <mxPoint x="84" y="310" as="targetPoint" />
          </mxGeometry>
        </mxCell>
        <mxCell id="MRaJnN5qhACwFd_UVzpz-54" value="" style="endArrow=none;dashed=1;html=1;rounded=0;exitX=0.953;exitY=0.5;exitDx=0;exitDy=0;exitPerimeter=0;entryX=0.027;entryY=0.581;entryDx=0;entryDy=0;entryPerimeter=0;" edge="1" parent="1" source="MRaJnN5qhACwFd_UVzpz-42" target="MRaJnN5qhACwFd_UVzpz-40">
          <mxGeometry width="50" height="50" relative="1" as="geometry">
            <mxPoint x="-26" y="320" as="sourcePoint" />
            <mxPoint x="84" y="320" as="targetPoint" />
          </mxGeometry>
        </mxCell>
        <mxCell id="MRaJnN5qhACwFd_UVzpz-55" value="" style="endArrow=none;dashed=1;html=1;rounded=0;entryX=0;entryY=0.5;entryDx=0;entryDy=0;entryPerimeter=0;exitX=1.008;exitY=0.335;exitDx=0;exitDy=0;exitPerimeter=0;" edge="1" parent="1" source="MRaJnN5qhACwFd_UVzpz-43" target="MRaJnN5qhACwFd_UVzpz-41">
          <mxGeometry width="50" height="50" relative="1" as="geometry">
            <mxPoint x="-26" y="490" as="sourcePoint" />
            <mxPoint x="84" y="490" as="targetPoint" />
          </mxGeometry>
        </mxCell>
        <mxCell id="MRaJnN5qhACwFd_UVzpz-56" value="" style="endArrow=none;dashed=1;html=1;rounded=0;entryX=-0.009;entryY=0.75;entryDx=0;entryDy=0;entryPerimeter=0;exitX=0.891;exitY=0.656;exitDx=0;exitDy=0;exitPerimeter=0;" edge="1" parent="1" source="MRaJnN5qhACwFd_UVzpz-43" target="MRaJnN5qhACwFd_UVzpz-41">
          <mxGeometry width="50" height="50" relative="1" as="geometry">
            <mxPoint x="-16" y="500" as="sourcePoint" />
            <mxPoint x="84" y="500" as="targetPoint" />
          </mxGeometry>
        </mxCell>
        <mxCell id="MRaJnN5qhACwFd_UVzpz-57" value="" style="endArrow=none;dashed=1;html=1;rounded=0;exitX=0.333;exitY=0.003;exitDx=0;exitDy=0;exitPerimeter=0;entryX=0.333;entryY=0.99;entryDx=0;entryDy=0;entryPerimeter=0;" edge="1" parent="1" source="MRaJnN5qhACwFd_UVzpz-43" target="MRaJnN5qhACwFd_UVzpz-42">
          <mxGeometry width="50" height="50" relative="1" as="geometry">
            <mxPoint x="-66" y="480" as="sourcePoint" />
            <mxPoint x="-66" y="270" as="targetPoint" />
          </mxGeometry>
        </mxCell>
        <mxCell id="MRaJnN5qhACwFd_UVzpz-58" value="" style="endArrow=none;dashed=1;html=1;rounded=0;exitX=0.668;exitY=0;exitDx=0;exitDy=0;exitPerimeter=0;entryX=0.667;entryY=1.003;entryDx=0;entryDy=0;entryPerimeter=0;" edge="1" parent="1" source="MRaJnN5qhACwFd_UVzpz-43" target="MRaJnN5qhACwFd_UVzpz-42">
          <mxGeometry width="50" height="50" relative="1" as="geometry">
            <mxPoint x="-46" y="480" as="sourcePoint" />
            <mxPoint x="-46" y="270" as="targetPoint" />
          </mxGeometry>
        </mxCell>
        <mxCell id="MRaJnN5qhACwFd_UVzpz-60" value="" style="endArrow=none;html=1;rounded=0;entryX=0.12;entryY=0.1;entryDx=0;entryDy=0;entryPerimeter=0;exitX=0.95;exitY=0.94;exitDx=0;exitDy=0;exitPerimeter=0;" edge="1" parent="1" source="MRaJnN5qhACwFd_UVzpz-40" target="MRaJnN5qhACwFd_UVzpz-21">
          <mxGeometry width="50" height="50" relative="1" as="geometry">
            <mxPoint x="144" y="320" as="sourcePoint" />
            <mxPoint x="264" y="460" as="targetPoint" />
          </mxGeometry>
        </mxCell>
        <mxCell id="MRaJnN5qhACwFd_UVzpz-61" value="" style="endArrow=none;html=1;rounded=0;exitX=1;exitY=0;exitDx=0;exitDy=0;exitPerimeter=0;entryX=0.12;entryY=0.9;entryDx=0;entryDy=0;entryPerimeter=0;" edge="1" parent="1" source="MRaJnN5qhACwFd_UVzpz-41" target="MRaJnN5qhACwFd_UVzpz-22">
          <mxGeometry width="50" height="50" relative="1" as="geometry">
            <mxPoint x="144" y="500" as="sourcePoint" />
            <mxPoint x="264" y="320" as="targetPoint" />
          </mxGeometry>
        </mxCell>
        <mxCell id="MRaJnN5qhACwFd_UVzpz-62" value="" style="endArrow=none;html=1;rounded=0;exitX=1;exitY=0.5;exitDx=0;exitDy=0;exitPerimeter=0;entryX=0;entryY=0.5;entryDx=0;entryDy=0;entryPerimeter=0;" edge="1" parent="1" source="MRaJnN5qhACwFd_UVzpz-41" target="MRaJnN5qhACwFd_UVzpz-21">
          <mxGeometry width="50" height="50" relative="1" as="geometry">
            <mxPoint x="144" y="520" as="sourcePoint" />
            <mxPoint x="264" y="490" as="targetPoint" />
          </mxGeometry>
        </mxCell>
        <mxCell id="MRaJnN5qhACwFd_UVzpz-63" value="" style="endArrow=none;html=1;rounded=0;exitX=1;exitY=0.5;exitDx=0;exitDy=0;exitPerimeter=0;entryX=0;entryY=0.5;entryDx=0;entryDy=0;entryPerimeter=0;" edge="1" parent="1" source="MRaJnN5qhACwFd_UVzpz-40" target="MRaJnN5qhACwFd_UVzpz-22">
          <mxGeometry width="50" height="50" relative="1" as="geometry">
            <mxPoint x="144" y="307" as="sourcePoint" />
            <mxPoint x="264" y="307" as="targetPoint" />
          </mxGeometry>
        </mxCell>
        <mxCell id="MRaJnN5qhACwFd_UVzpz-65" value="" style="endArrow=none;dashed=1;html=1;rounded=0;exitX=0.5;exitY=0;exitDx=0;exitDy=0;exitPerimeter=0;entryX=0.5;entryY=1;entryDx=0;entryDy=0;entryPerimeter=0;" edge="1" parent="1" source="MRaJnN5qhACwFd_UVzpz-21" target="MRaJnN5qhACwFd_UVzpz-22">
          <mxGeometry width="50" height="50" relative="1" as="geometry">
            <mxPoint x="294" y="360" as="sourcePoint" />
            <mxPoint x="344" y="310" as="targetPoint" />
          </mxGeometry>
        </mxCell>
        <mxCell id="MRaJnN5qhACwFd_UVzpz-66" value="" style="endArrow=none;dashed=1;html=1;rounded=0;exitX=0.88;exitY=0.9;exitDx=0;exitDy=0;exitPerimeter=0;entryX=0.12;entryY=0.1;entryDx=0;entryDy=0;entryPerimeter=0;" edge="1" parent="1" source="MRaJnN5qhACwFd_UVzpz-22" target="MRaJnN5qhACwFd_UVzpz-20">
          <mxGeometry width="50" height="50" relative="1" as="geometry">
            <mxPoint x="354" y="340" as="sourcePoint" />
            <mxPoint x="384" y="285" as="targetPoint" />
          </mxGeometry>
        </mxCell>
        <mxCell id="MRaJnN5qhACwFd_UVzpz-67" value="" style="endArrow=none;dashed=1;html=1;rounded=0;exitX=0.88;exitY=0.1;exitDx=0;exitDy=0;exitPerimeter=0;entryX=0.12;entryY=0.9;entryDx=0;entryDy=0;entryPerimeter=0;" edge="1" parent="1" source="MRaJnN5qhACwFd_UVzpz-21" target="MRaJnN5qhACwFd_UVzpz-20">
          <mxGeometry width="50" height="50" relative="1" as="geometry">
            <mxPoint x="354" y="474.5" as="sourcePoint" />
            <mxPoint x="404" y="424.5" as="targetPoint" />
          </mxGeometry>
        </mxCell>
        <mxCell id="MRaJnN5qhACwFd_UVzpz-68" value="" style="endArrow=none;dashed=1;html=1;rounded=0;exitX=0.5;exitY=0;exitDx=0;exitDy=0;exitPerimeter=0;entryX=0.5;entryY=1;entryDx=0;entryDy=0;entryPerimeter=0;" edge="1" parent="1" source="MRaJnN5qhACwFd_UVzpz-22" target="MRaJnN5qhACwFd_UVzpz-49">
          <mxGeometry width="50" height="50" relative="1" as="geometry">
            <mxPoint x="294" y="280" as="sourcePoint" />
            <mxPoint x="344" y="230" as="targetPoint" />
          </mxGeometry>
        </mxCell>
        <mxCell id="MRaJnN5qhACwFd_UVzpz-69" value="" style="endArrow=none;dashed=1;html=1;rounded=0;entryX=1;entryY=0.5;entryDx=0;entryDy=0;entryPerimeter=0;exitX=0;exitY=0.5;exitDx=0;exitDy=0;exitPerimeter=0;" edge="1" parent="1" source="MRaJnN5qhACwFd_UVzpz-49" target="MRaJnN5qhACwFd_UVzpz-18">
          <mxGeometry width="50" height="50" relative="1" as="geometry">
            <mxPoint x="294" y="280" as="sourcePoint" />
            <mxPoint x="344" y="230" as="targetPoint" />
          </mxGeometry>
        </mxCell>
        <mxCell id="MRaJnN5qhACwFd_UVzpz-70" value="" style="endArrow=none;dashed=1;html=1;rounded=0;exitX=1;exitY=0.5;exitDx=0;exitDy=0;exitPerimeter=0;entryX=0.049;entryY=0.566;entryDx=0;entryDy=0;entryPerimeter=0;" edge="1" parent="1" source="MRaJnN5qhACwFd_UVzpz-20" target="MRaJnN5qhACwFd_UVzpz-39">
          <mxGeometry width="50" height="50" relative="1" as="geometry">
            <mxPoint x="210" y="490" as="sourcePoint" />
            <mxPoint x="260" y="440" as="targetPoint" />
          </mxGeometry>
        </mxCell>
        <mxCell id="MRaJnN5qhACwFd_UVzpz-71" value="" style="endArrow=none;html=1;rounded=0;" edge="1" parent="1" source="MRaJnN5qhACwFd_UVzpz-43" target="MRaJnN5qhACwFd_UVzpz-31">
          <mxGeometry width="50" height="50" relative="1" as="geometry">
            <mxPoint x="-96" y="490" as="sourcePoint" />
            <mxPoint x="-156" y="520" as="targetPoint" />
          </mxGeometry>
        </mxCell>
        <mxCell id="MRaJnN5qhACwFd_UVzpz-72" value="" style="endArrow=none;html=1;rounded=0;exitX=1;exitY=0;exitDx=0;exitDy=0;exitPerimeter=0;" edge="1" parent="1" source="MRaJnN5qhACwFd_UVzpz-27" target="MRaJnN5qhACwFd_UVzpz-43">
          <mxGeometry width="50" height="50" relative="1" as="geometry">
            <mxPoint x="-106" y="570" as="sourcePoint" />
            <mxPoint x="-56" y="520" as="targetPoint" />
          </mxGeometry>
        </mxCell>
        <mxCell id="MRaJnN5qhACwFd_UVzpz-73" value="" style="endArrow=none;html=1;rounded=0;exitX=0.86;exitY=0.406;exitDx=0;exitDy=0;exitPerimeter=0;" edge="1" parent="1" source="MRaJnN5qhACwFd_UVzpz-32" target="MRaJnN5qhACwFd_UVzpz-43">
          <mxGeometry width="50" height="50" relative="1" as="geometry">
            <mxPoint x="-66" y="560" as="sourcePoint" />
            <mxPoint x="-16" y="510" as="targetPoint" />
          </mxGeometry>
        </mxCell>
        <mxCell id="MRaJnN5qhACwFd_UVzpz-74" value="" style="endArrow=none;html=1;rounded=0;exitX=1;exitY=0.5;exitDx=0;exitDy=0;exitPerimeter=0;entryX=0.062;entryY=0.393;entryDx=0;entryDy=0;entryPerimeter=0;" edge="1" parent="1" source="MRaJnN5qhACwFd_UVzpz-26" target="MRaJnN5qhACwFd_UVzpz-43">
          <mxGeometry width="50" height="50" relative="1" as="geometry">
            <mxPoint x="-216" y="510" as="sourcePoint" />
            <mxPoint x="-166" y="460" as="targetPoint" />
          </mxGeometry>
        </mxCell>
        <mxCell id="MRaJnN5qhACwFd_UVzpz-75" value="" style="endArrow=none;html=1;rounded=0;entryX=0.86;entryY=0.85;entryDx=0;entryDy=0;entryPerimeter=0;exitX=0.184;exitY=0.227;exitDx=0;exitDy=0;exitPerimeter=0;" edge="1" parent="1" source="MRaJnN5qhACwFd_UVzpz-43" target="MRaJnN5qhACwFd_UVzpz-30">
          <mxGeometry width="50" height="50" relative="1" as="geometry">
            <mxPoint x="-216" y="510" as="sourcePoint" />
            <mxPoint x="-166" y="460" as="targetPoint" />
          </mxGeometry>
        </mxCell>
        <mxCell id="MRaJnN5qhACwFd_UVzpz-77" value="" style="endArrow=none;html=1;rounded=0;entryX=0.5;entryY=0;entryDx=0;entryDy=0;entryPerimeter=0;" edge="1" parent="1" source="MRaJnN5qhACwFd_UVzpz-42" target="MRaJnN5qhACwFd_UVzpz-34">
          <mxGeometry width="50" height="50" relative="1" as="geometry">
            <mxPoint x="-56" y="340" as="sourcePoint" />
            <mxPoint x="-6" y="290" as="targetPoint" />
          </mxGeometry>
        </mxCell>
        <mxCell id="MRaJnN5qhACwFd_UVzpz-78" value="" style="endArrow=none;html=1;rounded=0;entryX=1;entryY=0.5;entryDx=0;entryDy=0;entryPerimeter=0;exitX=0;exitY=0.98;exitDx=0;exitDy=0;exitPerimeter=0;" edge="1" parent="1" source="MRaJnN5qhACwFd_UVzpz-42" target="MRaJnN5qhACwFd_UVzpz-25">
          <mxGeometry width="50" height="50" relative="1" as="geometry">
            <mxPoint x="-56" y="340" as="sourcePoint" />
            <mxPoint x="-6" y="290" as="targetPoint" />
          </mxGeometry>
        </mxCell>
        <mxCell id="MRaJnN5qhACwFd_UVzpz-79" value="" style="endArrow=none;html=1;rounded=0;entryX=0.86;entryY=0.85;entryDx=0;entryDy=0;entryPerimeter=0;exitX=0;exitY=0.5;exitDx=0;exitDy=0;exitPerimeter=0;" edge="1" parent="1" source="MRaJnN5qhACwFd_UVzpz-42" target="MRaJnN5qhACwFd_UVzpz-28">
          <mxGeometry width="50" height="50" relative="1" as="geometry">
            <mxPoint x="-56" y="340" as="sourcePoint" />
            <mxPoint x="-6" y="290" as="targetPoint" />
          </mxGeometry>
        </mxCell>
        <mxCell id="MRaJnN5qhACwFd_UVzpz-80" value="" style="endArrow=none;html=1;rounded=0;entryX=0.5;entryY=1;entryDx=0;entryDy=0;entryPerimeter=0;exitX=0.261;exitY=0.109;exitDx=0;exitDy=0;exitPerimeter=0;" edge="1" parent="1" source="MRaJnN5qhACwFd_UVzpz-42" target="MRaJnN5qhACwFd_UVzpz-24">
          <mxGeometry width="50" height="50" relative="1" as="geometry">
            <mxPoint x="-56" y="340" as="sourcePoint" />
            <mxPoint x="-6" y="290" as="targetPoint" />
          </mxGeometry>
        </mxCell>
        <mxCell id="MRaJnN5qhACwFd_UVzpz-81" value="" style="endArrow=none;html=1;rounded=0;entryX=0.5;entryY=1;entryDx=0;entryDy=0;entryPerimeter=0;exitX=0.5;exitY=0;exitDx=0;exitDy=0;exitPerimeter=0;" edge="1" parent="1" source="MRaJnN5qhACwFd_UVzpz-42" target="MRaJnN5qhACwFd_UVzpz-29">
          <mxGeometry width="50" height="50" relative="1" as="geometry">
            <mxPoint x="-56" y="340" as="sourcePoint" />
            <mxPoint x="-6" y="290" as="targetPoint" />
          </mxGeometry>
        </mxCell>
        <mxCell id="MRaJnN5qhACwFd_UVzpz-83" value="" style="endArrow=none;dashed=1;html=1;rounded=0;exitX=0.88;exitY=0.9;exitDx=0;exitDy=0;exitPerimeter=0;entryX=0.12;entryY=0.1;entryDx=0;entryDy=0;entryPerimeter=0;" edge="1" parent="1" source="MRaJnN5qhACwFd_UVzpz-12" target="MRaJnN5qhACwFd_UVzpz-13">
          <mxGeometry width="50" height="50" relative="1" as="geometry">
            <mxPoint x="820" y="310" as="sourcePoint" />
            <mxPoint x="870" y="260" as="targetPoint" />
          </mxGeometry>
        </mxCell>
        <mxCell id="MRaJnN5qhACwFd_UVzpz-84" value="" style="endArrow=none;dashed=1;html=1;rounded=0;exitX=0.88;exitY=0.1;exitDx=0;exitDy=0;exitPerimeter=0;entryX=0.12;entryY=0.9;entryDx=0;entryDy=0;entryPerimeter=0;" edge="1" parent="1" source="MRaJnN5qhACwFd_UVzpz-12" target="MRaJnN5qhACwFd_UVzpz-11">
          <mxGeometry width="50" height="50" relative="1" as="geometry">
            <mxPoint x="827" y="192" as="sourcePoint" />
            <mxPoint x="877" y="142" as="targetPoint" />
          </mxGeometry>
        </mxCell>
        <mxCell id="MRaJnN5qhACwFd_UVzpz-85" value="" style="endArrow=none;html=1;rounded=0;exitX=0.88;exitY=0.1;exitDx=0;exitDy=0;exitPerimeter=0;entryX=0;entryY=0.98;entryDx=0;entryDy=0;entryPerimeter=0;" edge="1" parent="1" source="MRaJnN5qhACwFd_UVzpz-13" target="MRaJnN5qhACwFd_UVzpz-44">
          <mxGeometry width="50" height="50" relative="1" as="geometry">
            <mxPoint x="970" y="300" as="sourcePoint" />
            <mxPoint x="1020" y="250" as="targetPoint" />
          </mxGeometry>
        </mxCell>
        <mxCell id="MRaJnN5qhACwFd_UVzpz-86" value="" style="endArrow=none;html=1;rounded=0;exitX=0.88;exitY=0.9;exitDx=0;exitDy=0;exitPerimeter=0;entryX=0.204;entryY=0.152;entryDx=0;entryDy=0;entryPerimeter=0;" edge="1" parent="1" source="MRaJnN5qhACwFd_UVzpz-11" target="MRaJnN5qhACwFd_UVzpz-44">
          <mxGeometry width="50" height="50" relative="1" as="geometry">
            <mxPoint x="960" y="180" as="sourcePoint" />
            <mxPoint x="990" y="190" as="targetPoint" />
          </mxGeometry>
        </mxCell>
        <mxCell id="MRaJnN5qhACwFd_UVzpz-87" value="" style="endArrow=none;html=1;rounded=0;exitX=0.758;exitY=0.972;exitDx=0;exitDy=0;exitPerimeter=0;" edge="1" parent="1" source="MRaJnN5qhACwFd_UVzpz-44" target="MRaJnN5qhACwFd_UVzpz-37">
          <mxGeometry width="50" height="50" relative="1" as="geometry">
            <mxPoint x="1050" y="310" as="sourcePoint" />
            <mxPoint x="1100" y="260" as="targetPoint" />
          </mxGeometry>
        </mxCell>
        <mxCell id="MRaJnN5qhACwFd_UVzpz-88" value="" style="endArrow=none;html=1;rounded=0;entryX=0.007;entryY=0.659;entryDx=0;entryDy=0;entryPerimeter=0;exitX=0.87;exitY=0.74;exitDx=0;exitDy=0;exitPerimeter=0;" edge="1" parent="1" source="MRaJnN5qhACwFd_UVzpz-44" target="MRaJnN5qhACwFd_UVzpz-36">
          <mxGeometry width="50" height="50" relative="1" as="geometry">
            <mxPoint x="1108" y="284.5" as="sourcePoint" />
            <mxPoint x="1158" y="234.5" as="targetPoint" />
          </mxGeometry>
        </mxCell>
        <mxCell id="MRaJnN5qhACwFd_UVzpz-89" value="" style="endArrow=none;html=1;rounded=0;" edge="1" parent="1" source="MRaJnN5qhACwFd_UVzpz-44" target="MRaJnN5qhACwFd_UVzpz-8">
          <mxGeometry width="50" height="50" relative="1" as="geometry">
            <mxPoint x="1108" y="234.5" as="sourcePoint" />
            <mxPoint x="1158" y="184.5" as="targetPoint" />
          </mxGeometry>
        </mxCell>
        <mxCell id="MRaJnN5qhACwFd_UVzpz-90" value="" style="endArrow=none;html=1;rounded=0;exitX=1;exitY=0;exitDx=0;exitDy=0;exitPerimeter=0;entryX=0;entryY=1;entryDx=0;entryDy=0;entryPerimeter=0;" edge="1" parent="1" source="MRaJnN5qhACwFd_UVzpz-44" target="MRaJnN5qhACwFd_UVzpz-23">
          <mxGeometry width="50" height="50" relative="1" as="geometry">
            <mxPoint x="1090" y="199" as="sourcePoint" />
            <mxPoint x="1140" y="149" as="targetPoint" />
          </mxGeometry>
        </mxCell>
        <mxCell id="MRaJnN5qhACwFd_UVzpz-91" value="" style="endArrow=none;dashed=1;html=1;rounded=0;exitX=0.825;exitY=0.16;exitDx=0;exitDy=0;exitPerimeter=0;entryX=0.12;entryY=0.9;entryDx=0;entryDy=0;entryPerimeter=0;" edge="1" parent="1" source="MRaJnN5qhACwFd_UVzpz-39" target="MRaJnN5qhACwFd_UVzpz-12">
          <mxGeometry width="50" height="50" relative="1" as="geometry">
            <mxPoint x="670" y="320" as="sourcePoint" />
            <mxPoint x="720" y="270" as="targetPoint" />
          </mxGeometry>
        </mxCell>
        <mxCell id="MRaJnN5qhACwFd_UVzpz-92" value="" style="shape=mxgraph.cisco.computers_and_peripherals.pc;sketch=0;html=1;pointerEvents=1;dashed=0;fillColor=#036897;strokeColor=#ffffff;strokeWidth=2;verticalLabelPosition=bottom;verticalAlign=top;align=center;outlineConnect=0;" vertex="1" parent="1">
          <mxGeometry x="1170" y="494.75" width="58" height="50" as="geometry" />
        </mxCell>
        <mxCell id="MRaJnN5qhACwFd_UVzpz-93" value="" style="shape=mxgraph.cisco.routers.router;sketch=0;html=1;pointerEvents=1;dashed=0;fillColor=#036897;strokeColor=#ffffff;strokeWidth=2;verticalLabelPosition=bottom;verticalAlign=top;align=center;outlineConnect=0;" vertex="1" parent="1">
          <mxGeometry x="890" y="440" width="50" height="38.5" as="geometry" />
        </mxCell>
        <mxCell id="MRaJnN5qhACwFd_UVzpz-94" value="" style="shape=mxgraph.cisco.routers.router;sketch=0;html=1;pointerEvents=1;dashed=0;fillColor=#036897;strokeColor=#ffffff;strokeWidth=2;verticalLabelPosition=bottom;verticalAlign=top;align=center;outlineConnect=0;" vertex="1" parent="1">
          <mxGeometry x="750" y="540" width="50" height="38.5" as="geometry" />
        </mxCell>
        <mxCell id="MRaJnN5qhACwFd_UVzpz-95" value="" style="shape=mxgraph.cisco.routers.router;sketch=0;html=1;pointerEvents=1;dashed=0;fillColor=#036897;strokeColor=#ffffff;strokeWidth=2;verticalLabelPosition=bottom;verticalAlign=top;align=center;outlineConnect=0;" vertex="1" parent="1">
          <mxGeometry x="895" y="620" width="50" height="39.5" as="geometry" />
        </mxCell>
        <mxCell id="MRaJnN5qhACwFd_UVzpz-96" value="" style="shape=mxgraph.cisco.servers.fileserver;sketch=0;html=1;pointerEvents=1;dashed=0;fillColor=#036897;strokeColor=#ffffff;strokeWidth=2;verticalLabelPosition=bottom;verticalAlign=top;align=center;outlineConnect=0;" vertex="1" parent="1">
          <mxGeometry x="1118" y="416.5" width="43" height="62" as="geometry" />
        </mxCell>
        <mxCell id="MRaJnN5qhACwFd_UVzpz-97" value="" style="shape=mxgraph.cisco.computers_and_peripherals.pc;sketch=0;html=1;pointerEvents=1;dashed=0;fillColor=#036897;strokeColor=#ffffff;strokeWidth=2;verticalLabelPosition=bottom;verticalAlign=top;align=center;outlineConnect=0;" vertex="1" parent="1">
          <mxGeometry x="1168.5" y="565" width="58" height="50" as="geometry" />
        </mxCell>
        <mxCell id="MRaJnN5qhACwFd_UVzpz-98" value="" style="shape=mxgraph.cisco.computers_and_peripherals.pc;sketch=0;html=1;pointerEvents=1;dashed=0;fillColor=#036897;strokeColor=#ffffff;strokeWidth=2;verticalLabelPosition=bottom;verticalAlign=top;align=center;outlineConnect=0;" vertex="1" parent="1">
          <mxGeometry x="1112" y="639.5" width="58" height="50" as="geometry" />
        </mxCell>
        <mxCell id="MRaJnN5qhACwFd_UVzpz-99" value="" style="shape=mxgraph.cisco.switches.workgroup_switch;sketch=0;html=1;pointerEvents=1;dashed=0;fillColor=#036897;strokeColor=#ffffff;strokeWidth=2;verticalLabelPosition=bottom;verticalAlign=top;align=center;outlineConnect=0;" vertex="1" parent="1">
          <mxGeometry x="1030" y="528.5" width="60" height="35.5" as="geometry" />
        </mxCell>
        <mxCell id="MRaJnN5qhACwFd_UVzpz-100" value="" style="endArrow=none;dashed=1;html=1;rounded=0;exitX=0.88;exitY=0.9;exitDx=0;exitDy=0;exitPerimeter=0;entryX=0.12;entryY=0.1;entryDx=0;entryDy=0;entryPerimeter=0;" edge="1" parent="1" source="MRaJnN5qhACwFd_UVzpz-94" target="MRaJnN5qhACwFd_UVzpz-95">
          <mxGeometry width="50" height="50" relative="1" as="geometry">
            <mxPoint x="820" y="639.5" as="sourcePoint" />
            <mxPoint x="870" y="589.5" as="targetPoint" />
          </mxGeometry>
        </mxCell>
        <mxCell id="MRaJnN5qhACwFd_UVzpz-101" value="" style="endArrow=none;dashed=1;html=1;rounded=0;exitX=0.88;exitY=0.1;exitDx=0;exitDy=0;exitPerimeter=0;entryX=0.12;entryY=0.9;entryDx=0;entryDy=0;entryPerimeter=0;" edge="1" parent="1" source="MRaJnN5qhACwFd_UVzpz-94" target="MRaJnN5qhACwFd_UVzpz-93">
          <mxGeometry width="50" height="50" relative="1" as="geometry">
            <mxPoint x="827" y="521.5" as="sourcePoint" />
            <mxPoint x="877" y="471.5" as="targetPoint" />
          </mxGeometry>
        </mxCell>
        <mxCell id="MRaJnN5qhACwFd_UVzpz-102" value="" style="endArrow=none;html=1;rounded=0;exitX=0.88;exitY=0.1;exitDx=0;exitDy=0;exitPerimeter=0;entryX=0;entryY=0.98;entryDx=0;entryDy=0;entryPerimeter=0;" edge="1" parent="1" source="MRaJnN5qhACwFd_UVzpz-95" target="MRaJnN5qhACwFd_UVzpz-99">
          <mxGeometry width="50" height="50" relative="1" as="geometry">
            <mxPoint x="970" y="629.5" as="sourcePoint" />
            <mxPoint x="1020" y="579.5" as="targetPoint" />
          </mxGeometry>
        </mxCell>
        <mxCell id="MRaJnN5qhACwFd_UVzpz-103" value="" style="endArrow=none;html=1;rounded=0;exitX=0.88;exitY=0.9;exitDx=0;exitDy=0;exitPerimeter=0;entryX=0.204;entryY=0.152;entryDx=0;entryDy=0;entryPerimeter=0;" edge="1" parent="1" source="MRaJnN5qhACwFd_UVzpz-93" target="MRaJnN5qhACwFd_UVzpz-99">
          <mxGeometry width="50" height="50" relative="1" as="geometry">
            <mxPoint x="960" y="509.5" as="sourcePoint" />
            <mxPoint x="990" y="519.5" as="targetPoint" />
          </mxGeometry>
        </mxCell>
        <mxCell id="MRaJnN5qhACwFd_UVzpz-104" value="" style="endArrow=none;html=1;rounded=0;exitX=0.758;exitY=0.972;exitDx=0;exitDy=0;exitPerimeter=0;" edge="1" parent="1" source="MRaJnN5qhACwFd_UVzpz-99" target="MRaJnN5qhACwFd_UVzpz-98">
          <mxGeometry width="50" height="50" relative="1" as="geometry">
            <mxPoint x="1050" y="639.5" as="sourcePoint" />
            <mxPoint x="1100" y="589.5" as="targetPoint" />
          </mxGeometry>
        </mxCell>
        <mxCell id="MRaJnN5qhACwFd_UVzpz-105" value="" style="endArrow=none;html=1;rounded=0;entryX=0.007;entryY=0.659;entryDx=0;entryDy=0;entryPerimeter=0;exitX=0.87;exitY=0.74;exitDx=0;exitDy=0;exitPerimeter=0;" edge="1" parent="1" source="MRaJnN5qhACwFd_UVzpz-99" target="MRaJnN5qhACwFd_UVzpz-97">
          <mxGeometry width="50" height="50" relative="1" as="geometry">
            <mxPoint x="1108" y="614" as="sourcePoint" />
            <mxPoint x="1158" y="564" as="targetPoint" />
          </mxGeometry>
        </mxCell>
        <mxCell id="MRaJnN5qhACwFd_UVzpz-106" value="" style="endArrow=none;html=1;rounded=0;" edge="1" parent="1" source="MRaJnN5qhACwFd_UVzpz-99" target="MRaJnN5qhACwFd_UVzpz-92">
          <mxGeometry width="50" height="50" relative="1" as="geometry">
            <mxPoint x="1108" y="564" as="sourcePoint" />
            <mxPoint x="1158" y="514" as="targetPoint" />
          </mxGeometry>
        </mxCell>
        <mxCell id="MRaJnN5qhACwFd_UVzpz-107" value="" style="endArrow=none;html=1;rounded=0;exitX=1;exitY=0;exitDx=0;exitDy=0;exitPerimeter=0;entryX=0;entryY=1;entryDx=0;entryDy=0;entryPerimeter=0;" edge="1" parent="1" source="MRaJnN5qhACwFd_UVzpz-99" target="MRaJnN5qhACwFd_UVzpz-96">
          <mxGeometry width="50" height="50" relative="1" as="geometry">
            <mxPoint x="1090" y="528.5" as="sourcePoint" />
            <mxPoint x="1140" y="478.5" as="targetPoint" />
          </mxGeometry>
        </mxCell>
        <mxCell id="MRaJnN5qhACwFd_UVzpz-109" value="" style="endArrow=none;dashed=1;html=1;rounded=0;entryX=0.12;entryY=0.1;entryDx=0;entryDy=0;entryPerimeter=0;exitX=0.89;exitY=0.87;exitDx=0;exitDy=0;exitPerimeter=0;" edge="1" parent="1" source="MRaJnN5qhACwFd_UVzpz-39" target="MRaJnN5qhACwFd_UVzpz-94">
          <mxGeometry width="50" height="50" relative="1" as="geometry">
            <mxPoint x="800" y="390" as="sourcePoint" />
            <mxPoint x="850" y="340" as="targetPoint" />
          </mxGeometry>
        </mxCell>
        <mxCell id="MRaJnN5qhACwFd_UVzpz-111" value="" style="shape=mxgraph.cisco.routers.wireless_router;html=1;pointerEvents=1;dashed=0;fillColor=#036897;strokeColor=#ffffff;strokeWidth=2;verticalLabelPosition=bottom;verticalAlign=top;align=center;outlineConnect=0;" vertex="1" parent="1">
          <mxGeometry x="900" y="523.25" width="40" height="46" as="geometry" />
        </mxCell>
        <mxCell id="MRaJnN5qhACwFd_UVzpz-112" value="" style="shape=mxgraph.cisco.routers.wireless_router;html=1;pointerEvents=1;dashed=0;fillColor=#036897;strokeColor=#ffffff;strokeWidth=2;verticalLabelPosition=bottom;verticalAlign=top;align=center;outlineConnect=0;" vertex="1" parent="1">
          <mxGeometry x="20" y="375.25" width="40" height="46" as="geometry" />
        </mxCell>
        <mxCell id="MRaJnN5qhACwFd_UVzpz-113" value="" style="shape=mxgraph.cisco.routers.wireless_router;html=1;pointerEvents=1;dashed=0;fillColor=#036897;strokeColor=#ffffff;strokeWidth=2;verticalLabelPosition=bottom;verticalAlign=top;align=center;outlineConnect=0;" vertex="1" parent="1">
          <mxGeometry x="895" y="196.5" width="40" height="46" as="geometry" />
        </mxCell>
        <mxCell id="MRaJnN5qhACwFd_UVzpz-114" value="" style="endArrow=none;html=1;rounded=0;entryX=0;entryY=0.5;entryDx=0;entryDy=0;entryPerimeter=0;" edge="1" parent="1" source="MRaJnN5qhACwFd_UVzpz-42" target="MRaJnN5qhACwFd_UVzpz-112">
          <mxGeometry width="50" height="50" relative="1" as="geometry">
            <mxPoint x="400" y="470" as="sourcePoint" />
            <mxPoint x="450" y="420" as="targetPoint" />
          </mxGeometry>
        </mxCell>
        <mxCell id="MRaJnN5qhACwFd_UVzpz-115" value="" style="endArrow=none;html=1;rounded=0;exitX=1;exitY=0.5;exitDx=0;exitDy=0;exitPerimeter=0;entryX=0;entryY=0.5;entryDx=0;entryDy=0;entryPerimeter=0;" edge="1" parent="1" source="MRaJnN5qhACwFd_UVzpz-111" target="MRaJnN5qhACwFd_UVzpz-99">
          <mxGeometry width="50" height="50" relative="1" as="geometry">
            <mxPoint x="960" y="530" as="sourcePoint" />
            <mxPoint x="1010" y="480" as="targetPoint" />
          </mxGeometry>
        </mxCell>
        <mxCell id="MRaJnN5qhACwFd_UVzpz-116" value="" style="endArrow=none;html=1;rounded=0;exitX=1;exitY=0.5;exitDx=0;exitDy=0;exitPerimeter=0;entryX=0;entryY=0.5;entryDx=0;entryDy=0;entryPerimeter=0;" edge="1" parent="1" source="MRaJnN5qhACwFd_UVzpz-113" target="MRaJnN5qhACwFd_UVzpz-44">
          <mxGeometry width="50" height="50" relative="1" as="geometry">
            <mxPoint x="960" y="300" as="sourcePoint" />
            <mxPoint x="1010" y="250" as="targetPoint" />
          </mxGeometry>
        </mxCell>
      </root>
    </mxGraphModel>
  </diagram>
</mxfile>
